<svg width="103" height="88" viewBox="0 0 103 88" fill="none" xmlns="http://www.w3.org/2000/svg">
<g clip-path="url(#clip0_13_284)">
<path d="M92.3803 29.1195L42.5595 1.22364C40.5086 0.0752686 38.5012 2.79255 40.2015 4.41549L66.6669 29.6759C76.9558 39.4962 75.9544 56.2074 64.5665 64.7288L38.8466 83.9747C36.9321 85.4073 38.6903 88.3836 40.869 87.3983L90.8509 64.7931C105.801 58.0314 106.697 37.1359 92.3803 29.1195Z" fill="white"/>
<path d="M54.5116 29.2973L4.69085 1.40144C2.6399 0.253064 0.632503 2.97034 2.33287 4.59329L28.7983 29.8537C39.0871 39.674 38.0857 56.3852 26.6978 64.9066L0.977931 84.1525C-0.936578 85.5851 0.821623 88.5614 3.00033 87.5761L52.9822 64.9709C67.9327 58.2092 68.8286 37.3137 54.5116 29.2973Z" fill="white"/>
<path d="M54.1297 28.7704L4.77981 1.38252C2.72342 0.241277 0.726304 2.96916 2.43544 4.58471L28.5481 29.2674C38.9505 39.1002 37.9407 55.9449 26.4381 64.4645L1.15729 83.1892C-0.764942 84.613 0.980666 87.5988 3.16426 86.6221L52.5906 64.5148C67.6356 57.7855 68.5407 36.768 54.1297 28.7704Z" fill="white"/>
</g>
<defs>
<clipPath id="clip0_13_284">
<rect width="103" height="88" fill="white"/>
</clipPath>
</defs>
</svg>
